
<svg xmlns="http://www.w3.org/2000/svg" xmlns:xlink="http://www.w3.org/1999/xlink" version="1.1"  width="1330" height="840">
<defs id="dmw_defs" >
<svg id="fk_sym" viewBox="0 0 48.665 48.665" style="enable-background:new 0 0 48.665 48.665;" >
<g>
<path d="M40.332,31.592c-2.377,0-4.515,1-6.033,2.598l-17.737-8.686c0.061-0.406,0.103-0.82,0.103-1.246    c0-0.414-0.04-0.818-0.098-1.215l17.711-8.589c1.519,1.609,3.666,2.619,6.054,2.619c4.603,0,8.333-3.731,8.333-8.333    c0-4.603-3.73-8.333-8.333-8.333s-8.333,3.73-8.333,8.333c0,0.414,0.04,0.817,0.098,1.215l-17.709,8.589    c-1.519-1.609-3.666-2.619-6.054-2.619C3.73,15.925,0,19.656,0,24.258c0,4.603,3.73,8.333,8.333,8.333    c2.377,0,4.515-1,6.033-2.596l17.736,8.685c-0.062,0.406-0.104,0.82-0.104,1.245c0,4.604,3.73,8.333,8.333,8.333    s8.333-3.729,8.333-8.333C48.665,35.322,44.935,31.592,40.332,31.592z" fill="#13bf3b"/>
</g>
</svg>
<svg id="pk_sym" viewBox="0 0 480.509 480.509" style="enable-background:new 0 0 480.509 480.509;" >
<g>
<path d="M418.119,331.046c4.094,4.374,7.766,8.186,10.996,11.416c3.237,3.238,6.714,6.376,10.427,9.422   c3.71,3.042,6.427,4.568,8.135,4.568c3.241,0,9.517-4.661,18.843-13.99c9.328-9.321,13.989-15.604,13.989-18.842   c0-1.523-2.714-5.421-8.138-11.704c-5.421-6.276-12.364-13.702-20.838-22.271c-8.473-8.565-16.703-16.744-24.694-24.55   c-8.001-7.81-15.8-15.373-23.417-22.703c-7.611-7.327-11.992-11.56-13.135-12.703c-1.902-1.902-4.093-2.853-6.563-2.853   c-3.237,0-9.521,4.661-18.843,13.988c-9.328,9.322-13.989,15.605-13.989,18.843c0,1.711,1.522,4.421,4.568,8.138   c3.046,3.71,6.188,7.187,9.421,10.424c3.23,3.23,7.047,6.899,11.42,10.992c4.377,4.093,6.848,6.423,7.423,6.995l-27.408,27.404   L254.954,222.268c24.94-33.498,37.408-68.236,37.408-104.211c0-31.024-9.761-56.293-29.263-75.801   c-19.512-19.511-44.778-29.265-75.805-29.265c-30.454,0-60.244,9.042-89.363,27.119c-29.121,18.083-52.727,41.686-70.808,70.808   C9.042,140.038,0,169.828,0,200.28c0,31.029,9.753,56.286,29.265,75.803c19.511,19.517,44.777,29.27,75.801,29.27   c35.976,0,70.71-12.467,104.212-37.407l191.574,191.579c5.332,5.328,11.796,7.994,19.417,7.994c7.991,0,15.704-3.72,23.12-11.14   c7.426-7.426,11.143-15.129,11.143-23.127c0-7.617-2.666-14.092-7.994-19.417l-62.811-62.811l27.405-27.404   C411.699,324.195,414.033,326.666,418.119,331.046z M221.556,161.458c-10.656,10.657-23.601,15.987-38.828,15.987   c-7.996,0-15.896-1.812-23.7-5.43c3.617,7.808,5.426,15.706,5.426,23.7c0,15.229-5.327,28.171-15.987,38.828   c-10.66,10.655-23.606,15.986-38.831,15.986c-15.227,0-28.168-5.325-38.828-15.986c-10.657-10.657-15.987-23.599-15.987-38.828   c0-15.227,5.327-28.171,15.987-38.828C81.464,146.23,94.409,140.9,109.636,140.9c7.992,0,15.893,1.809,23.695,5.424   c-3.616-7.804-5.424-15.706-5.424-23.699c0-15.227,5.327-28.171,15.987-38.828c10.66-10.657,23.604-15.987,38.831-15.987   c15.227,0,28.171,5.327,38.828,15.987c10.657,10.66,15.987,23.601,15.987,38.828C237.539,137.852,232.209,150.797,221.556,161.458z   " fill="#ff8345"/>
</g>
</svg>
<svg id="uk_sym" viewBox="0 0 490 490" style="enable-background:new 0 0 490 490;" >
<g>
	<polygon points="236.99,11.41 0,246.348 236.99,478.678 236.99,350.609 129.864,245 236.99,139.391  " fill="#0064fb"/>
<polygon points="253.01,478.59 490,243.651 253.01,11.322 253.01,139.391 360.136,245 253.01,350.609  " fill="#0064fb"/>
</g>
</svg>
<svg id="link_sym" viewBox="0 0 1000 900" style="enable-background:new 0 0 1000 900;" >
<g>
<path fill="black" d="M660.224 422.656c6.976 16.192-0.512 35.008-16.768 42.048-16.128 6.976-34.944-0.448-41.984-16.768-8.448-19.776-20.736-37.696-36.224-53.248-64.64-64.64-177.344-64.64-241.92 0l-145.216 145.28c-66.688 66.688-66.688 175.232 0 241.984 66.688 66.688 175.104 66.752 241.92 0l92.8-92.864c12.48-12.48 32.768-12.48 45.248 0s12.48 32.768 0 45.248l-92.8 92.864c-91.648 91.648-240.832 91.52-332.416 0-91.712-91.648-91.712-240.832 0-332.48l145.216-145.28c44.352-44.416 103.424-68.864 166.272-68.864s121.792 24.448 166.208 68.864c21.248 21.312 38.016 45.952 49.664 73.216zM891.136 401.344l-145.216 145.216c-88.768 88.832-243.712 88.832-332.416 0-21.312-21.312-38.080-45.952-49.728-73.216-7.040-16.256 0.448-35.072 16.704-42.048 16.064-6.784 35.008 0.512 41.984 16.768 8.512 19.776 20.8 37.696 36.288 53.248 64.64 64.64 177.344 64.64 241.92 0l145.216-145.216c66.688-66.688 66.688-175.232 0-241.984-66.752-66.624-175.168-66.688-241.92 0l-92.8 92.864c-12.48 12.48-32.768 12.48-45.248 0s-12.48-32.768 0-45.248l92.8-92.864c45.824-45.824 105.984-68.736 166.208-68.736s120.448 22.912 166.272 68.736c91.584 91.648 91.584 240.768-0.064 332.48z" />
</g>
</svg>
<clipPath clipPathUnits="userSpaceOnUse" id="clipPath6_0_">
<rect x="0" y="0" width="249" height="206" />
</clipPath>
<clipPath clipPathUnits="userSpaceOnUse" id="clipPath11_0_">
<rect x="0" y="0" width="245" height="105" />
</clipPath>
<clipPath clipPathUnits="userSpaceOnUse" id="clipPath5_0_">
<rect x="0" y="0" width="303" height="232" />
</clipPath>
<clipPath clipPathUnits="userSpaceOnUse" id="clipPath0_0_">
<rect x="0" y="0" width="270" height="180" />
</clipPath>
<clipPath clipPathUnits="userSpaceOnUse" id="clipPath7_0_">
<rect x="0" y="0" width="281" height="181" />
</clipPath>
<clipPath clipPathUnits="userSpaceOnUse" id="clipPath12_0_">
<rect x="0" y="0" width="265" height="105" />
</clipPath>
<clipPath clipPathUnits="userSpaceOnUse" id="clipPath8_0_">
<rect x="0" y="0" width="262" height="194" />
</clipPath>
<clipPath clipPathUnits="userSpaceOnUse" id="clipPath10_0_">
<rect x="0" y="0" width="238" height="103" />
</clipPath>
<clipPath clipPathUnits="userSpaceOnUse" id="clipPath2_0_">
<rect x="0" y="0" width="261" height="116" />
</clipPath>
<clipPath clipPathUnits="userSpaceOnUse" id="clipPath15_0_">
<rect x="0" y="0" width="80" height="1" />
</clipPath>
<clipPath clipPathUnits="userSpaceOnUse" id="clipPath9_0_">
<rect x="0" y="0" width="208" height="77" />
</clipPath>
<clipPath clipPathUnits="userSpaceOnUse" id="clipPath3_0_">
<rect x="0" y="0" width="398" height="228" />
</clipPath>
</defs>
<g stroke-linecap="butt" >
<path stroke="rgb(0,0,0)" fill="none" stroke-opacity="1.0"  stroke-width="1" d="M1024 467 L833 467" />
<polygon stroke="rgb(0,0,0)" stroke-dasharray="none" points="1024 467 1018 470 1018 464" fill="rgb(0,0,0)" stroke-width="1" stroke-opacity="1.0"  />
<path stroke-dasharray="none" d="M833.0 461.0 L845.0 467.0 L833.0 473.0 M845.5999994277954 461.0 L845.5999994277954 473.0" fill="none" stroke-width="1" stroke-opacity="1.0" stroke="rgb(0,0,0)" />
</g>
<g stroke-linecap="butt" >
<path stroke="rgb(0,0,0)" fill="none" stroke-opacity="1.0"  stroke-width="1" d="M708 298 L708 364" />
<polygon stroke="rgb(0,0,0)" stroke-dasharray="none" points="708 298 711 304 705 304" fill="rgb(0,0,0)" stroke-width="1" stroke-opacity="1.0"  />
<path stroke-dasharray="none" d="M702.0 364.0 L708.0 352.0 L714.0 364.0 M702.0 351.4000005722046 L714.0 351.4000005722046" fill="none" stroke-width="1" stroke-opacity="1.0" stroke="rgb(0,0,0)" />
</g>
<g  fill="rgb(255,255,180)" stroke="rgb(0,0,255)" fill-opacity="1.0" stroke-opacity="1.0" clip-path="url(#clipPath2_0_)" transform="translate(97,171)" >
<rect x="0" y="0" width="260" height="115" />
<text id="DEMO.COUNTY_EXT" x="79" y="13" fill="rgb(0,0,255)" font-weight="bold"  fill-opacity="1.0" font-size="10" stroke="none">
DEMO.COUNTY_EXT
</text>
<line x1="0" y1="17" x2="259" y2="17" fill="none" stroke="rgb(0,0,255)"/>
<text x="16" y="30" fill="rgb(255,0,0)" fill-opacity="1.0" font-size="10" stroke="none">

</text>
<text x="26" y="30" fill="rgb(0,0,0)" fill-opacity="1.0" font-size="10" stroke="none">
SUMMARY_LEVEL
</text>
<text x="142" y="30" fill="rgb(0,128,0)" fill-opacity="1.0" font-size="10" stroke="none">
VARCHAR2 (200 BYTE)
</text>
<text x="16" y="43" fill="rgb(255,0,0)" fill-opacity="1.0" font-size="10" stroke="none">

</text>
<text x="26" y="43" fill="rgb(0,0,0)" fill-opacity="1.0" font-size="10" stroke="none">
STATE_CODE
</text>
<text x="142" y="43" fill="rgb(0,128,0)" fill-opacity="1.0" font-size="10" stroke="none">
VARCHAR2 (200 BYTE)
</text>
<text x="16" y="56" fill="rgb(255,0,0)" fill-opacity="1.0" font-size="10" stroke="none">

</text>
<text x="26" y="56" fill="rgb(0,0,0)" fill-opacity="1.0" font-size="10" stroke="none">
COUNTY_CODE
</text>
<text x="142" y="56" fill="rgb(0,128,0)" fill-opacity="1.0" font-size="10" stroke="none">
VARCHAR2 (200 BYTE)
</text>
<text x="16" y="69" fill="rgb(255,0,0)" fill-opacity="1.0" font-size="10" stroke="none">

</text>
<text x="26" y="69" fill="rgb(0,0,0)" fill-opacity="1.0" font-size="10" stroke="none">
COUNTY_SUB_CODE
</text>
<text x="142" y="69" fill="rgb(0,128,0)" fill-opacity="1.0" font-size="10" stroke="none">
VARCHAR2 (200 BYTE)
</text>
<text x="16" y="82" fill="rgb(255,0,0)" fill-opacity="1.0" font-size="10" stroke="none">

</text>
<text x="26" y="82" fill="rgb(0,0,0)" fill-opacity="1.0" font-size="10" stroke="none">
PLACE_CODE
</text>
<text x="142" y="82" fill="rgb(0,128,0)" fill-opacity="1.0" font-size="10" stroke="none">
VARCHAR2 (200 BYTE)
</text>
<text x="16" y="95" fill="rgb(255,0,0)" fill-opacity="1.0" font-size="10" stroke="none">

</text>
<text x="26" y="95" fill="rgb(0,0,0)" fill-opacity="1.0" font-size="10" stroke="none">
CONSL_CITY_CODE
</text>
<text x="142" y="95" fill="rgb(0,128,0)" fill-opacity="1.0" font-size="10" stroke="none">
VARCHAR2 (200 BYTE)
</text>
<text x="16" y="108" fill="rgb(255,0,0)" fill-opacity="1.0" font-size="10" stroke="none">

</text>
<text x="26" y="108" fill="rgb(0,0,0)" fill-opacity="1.0" font-size="10" stroke="none">
AREA_NAME
</text>
<text x="142" y="108" fill="rgb(0,128,0)" fill-opacity="1.0" font-size="10" stroke="none">
VARCHAR2 (200 BYTE)
</text>
</g>
<g  fill="rgb(255,255,180)" stroke="rgb(0,0,255)" fill-opacity="1.0" stroke-opacity="1.0" clip-path="url(#clipPath3_0_)" transform="translate(582,70)" >
<rect x="0" y="0" width="397" height="227" />
<text id="DEMO.DIM_COUNTY" x="148" y="13" fill="rgb(0,0,255)" font-weight="bold"  fill-opacity="1.0" font-size="10" stroke="none">
DEMO.DIM_COUNTY
</text>
<line x1="0" y1="17" x2="396" y2="17" fill="none" stroke="rgb(0,0,255)"/>
<text x="16" y="30" fill="rgb(255,0,0)" fill-opacity="1.0" font-size="10" stroke="none">
*
</text>
<text x="2" y="30" fill="rgb(0,0,255)" fill-opacity="1.0" font-size="10" stroke="none">
P
</text>
<text x="26" y="30" fill="rgb(0,0,0)" fill-opacity="1.0" font-size="10" stroke="none">
COUNTY_SK
</text>
<text x="119" y="30" fill="rgb(0,128,0)" fill-opacity="1.0" font-size="10" stroke="none">
NUMBER
</text>
<text x="16" y="43" fill="rgb(255,0,0)" fill-opacity="1.0" font-size="10" stroke="none">
*
</text>
<text x="2" y="43" fill="rgb(0,0,255)" fill-opacity="1.0" font-size="10" stroke="none">
U
</text>
<text x="26" y="43" fill="rgb(0,0,0)" fill-opacity="1.0" font-size="10" stroke="none">
STATE_CODE
</text>
<text x="119" y="43" fill="rgb(0,128,0)" fill-opacity="1.0" font-size="10" stroke="none">
VARCHAR2 (2 BYTE)
</text>
<text x="16" y="56" fill="rgb(255,0,0)" fill-opacity="1.0" font-size="10" stroke="none">
*
</text>
<text x="2" y="56" fill="rgb(0,0,255)" fill-opacity="1.0" font-size="10" stroke="none">
U
</text>
<text x="26" y="56" fill="rgb(0,0,0)" fill-opacity="1.0" font-size="10" stroke="none">
COUNTY_CODE
</text>
<text x="119" y="56" fill="rgb(0,128,0)" fill-opacity="1.0" font-size="10" stroke="none">
VARCHAR2 (3 BYTE)
</text>
<text x="16" y="69" fill="rgb(255,0,0)" fill-opacity="1.0" font-size="10" stroke="none">
*
</text>
<text x="26" y="69" fill="rgb(0,0,0)" fill-opacity="1.0" font-size="10" stroke="none">
COUNTY_NAME
</text>
<text x="119" y="69" fill="rgb(0,128,0)" fill-opacity="1.0" font-size="10" stroke="none">
VARCHAR2 (200 BYTE)
</text>
<text x="16" y="82" fill="rgb(255,0,0)" fill-opacity="1.0" font-size="10" stroke="none">
*
</text>
<text x="2" y="82" fill="rgb(0,0,255)" fill-opacity="1.0" font-size="10" stroke="none">
U
</text>
<text x="26" y="82" fill="rgb(0,0,0)" fill-opacity="1.0" font-size="10" stroke="none">
START_DATE
</text>
<text x="119" y="82" fill="rgb(0,128,0)" fill-opacity="1.0" font-size="10" stroke="none">
DATE
</text>
<text x="16" y="95" fill="rgb(255,0,0)" fill-opacity="1.0" font-size="10" stroke="none">
*
</text>
<text x="26" y="95" fill="rgb(0,0,0)" fill-opacity="1.0" font-size="10" stroke="none">
END_DATE
</text>
<text x="119" y="95" fill="rgb(0,128,0)" fill-opacity="1.0" font-size="10" stroke="none">
DATE
</text>
<text x="16" y="108" fill="rgb(255,0,0)" fill-opacity="1.0" font-size="10" stroke="none">
*
</text>
<text x="2" y="108" fill="rgb(0,0,255)" fill-opacity="1.0" font-size="10" stroke="none">
U
</text>
<text x="26" y="108" fill="rgb(0,0,0)" fill-opacity="1.0" font-size="10" stroke="none">
IS_ACTIVE
</text>
<text x="119" y="108" fill="rgb(0,128,0)" fill-opacity="1.0" font-size="10" stroke="none">
VARCHAR2 (1 BYTE)
</text>
<text x="16" y="121" fill="rgb(255,0,0)" fill-opacity="1.0" font-size="10" stroke="none">
*
</text>
<text x="26" y="121" fill="rgb(0,0,0)" fill-opacity="1.0" font-size="10" stroke="none">
CREATED_ON
</text>
<text x="119" y="121" fill="rgb(0,128,0)" fill-opacity="1.0" font-size="10" stroke="none">
DATE
</text>
<text x="16" y="134" fill="rgb(255,0,0)" fill-opacity="1.0" font-size="10" stroke="none">
*
</text>
<text x="26" y="134" fill="rgb(0,0,0)" fill-opacity="1.0" font-size="10" stroke="none">
CREATED_BY
</text>
<text x="119" y="134" fill="rgb(0,128,0)" fill-opacity="1.0" font-size="10" stroke="none">
VARCHAR2 (30 BYTE)
</text>
<text x="16" y="147" fill="rgb(255,0,0)" fill-opacity="1.0" font-size="10" stroke="none">

</text>
<text x="26" y="147" fill="rgb(0,0,0)" fill-opacity="1.0" font-size="10" stroke="none">
MODIFIED_ON
</text>
<text x="119" y="147" fill="rgb(0,128,0)" fill-opacity="1.0" font-size="10" stroke="none">
DATE
</text>
<text x="16" y="160" fill="rgb(255,0,0)" fill-opacity="1.0" font-size="10" stroke="none">

</text>
<text x="26" y="160" fill="rgb(0,0,0)" fill-opacity="1.0" font-size="10" stroke="none">
MODIFIED_BY
</text>
<text x="119" y="160" fill="rgb(0,128,0)" fill-opacity="1.0" font-size="10" stroke="none">
VARCHAR2 (30 BYTE)
</text>
<line x1="0" y1="166" x2="396" y2="166" fill="none" stroke="rgb(0,0,255)"/>
<use xlink:href="#pk_sym" x="4" y="173" width="8" height="8" fill-opacity="1.0"/>
<text x="16" y="179" fill="rgb(0,0,0)" fill-opacity="1.0" font-size="10" stroke="none">
DIM_COUNTY_PK (COUNTY_SK)
</text>
<use xlink:href="#uk_sym" x="4" y="186" width="8" height="8" fill-opacity="1.0"/>
<text x="16" y="192" fill="rgb(0,0,0)" fill-opacity="1.0" font-size="10" stroke="none">
DIM_COUNTY_UK1 (STATE_CODE, COUNTY_CODE, START_DATE, IS_ACTIVE)
</text>
<line x1="0" y1="198" x2="396" y2="198" fill="none" stroke="rgb(0,0,255)"/>
<text x="2" y="211" fill="rgb(0,0,0)" fill-opacity="1.0" font-size="10" stroke="none">
U
</text>
<text x="16" y="211" fill="rgb(0,0,0)" fill-opacity="1.0" font-size="10" stroke="none">
DIM_COUNTY_UK1 (STATE_CODE, COUNTY_CODE, START_DATE, IS_ACTIVE)
</text>
</g>
<g  fill="rgb(255,255,180)" stroke="rgb(0,0,255)" fill-opacity="1.0" stroke-opacity="1.0" clip-path="url(#clipPath0_0_)" transform="translate(1043,69)" >
<rect x="0" y="0" width="269" height="179" />
<text id="DEMO.DIM_METROPOLITAN" x="65" y="13" fill="rgb(0,0,255)" font-weight="bold"  fill-opacity="1.0" font-size="10" stroke="none">
DEMO.DIM_METROPOLITAN
</text>
<line x1="0" y1="17" x2="268" y2="17" fill="none" stroke="rgb(0,0,255)"/>
<text x="16" y="30" fill="rgb(255,0,0)" fill-opacity="1.0" font-size="10" stroke="none">
*
</text>
<text x="26" y="30" fill="rgb(0,0,0)" fill-opacity="1.0" font-size="10" stroke="none">
METROPOLITAN_SK
</text>
<text x="139" y="30" fill="rgb(0,128,0)" fill-opacity="1.0" font-size="10" stroke="none">
NUMBER
</text>
<text x="16" y="43" fill="rgb(255,0,0)" fill-opacity="1.0" font-size="10" stroke="none">
*
</text>
<text x="26" y="43" fill="rgb(0,0,0)" fill-opacity="1.0" font-size="10" stroke="none">
STATE_CODE
</text>
<text x="139" y="43" fill="rgb(0,128,0)" fill-opacity="1.0" font-size="10" stroke="none">
VARCHAR2 (2 BYTE)
</text>
<text x="16" y="56" fill="rgb(255,0,0)" fill-opacity="1.0" font-size="10" stroke="none">
*
</text>
<text x="26" y="56" fill="rgb(0,0,0)" fill-opacity="1.0" font-size="10" stroke="none">
COUNTY_CODE
</text>
<text x="139" y="56" fill="rgb(0,128,0)" fill-opacity="1.0" font-size="10" stroke="none">
VARCHAR2 (3 BYTE)
</text>
<text x="16" y="69" fill="rgb(255,0,0)" fill-opacity="1.0" font-size="10" stroke="none">
*
</text>
<text x="26" y="69" fill="rgb(0,0,0)" fill-opacity="1.0" font-size="10" stroke="none">
METRPLRN_NAME
</text>
<text x="139" y="69" fill="rgb(0,128,0)" fill-opacity="1.0" font-size="10" stroke="none">
VARCHAR2 (200 BYTE)
</text>
<text x="16" y="82" fill="rgb(255,0,0)" fill-opacity="1.0" font-size="10" stroke="none">
*
</text>
<text x="26" y="82" fill="rgb(0,0,0)" fill-opacity="1.0" font-size="10" stroke="none">
START_DATE
</text>
<text x="139" y="82" fill="rgb(0,128,0)" fill-opacity="1.0" font-size="10" stroke="none">
DATE
</text>
<text x="16" y="95" fill="rgb(255,0,0)" fill-opacity="1.0" font-size="10" stroke="none">
*
</text>
<text x="26" y="95" fill="rgb(0,0,0)" fill-opacity="1.0" font-size="10" stroke="none">
END_DATE
</text>
<text x="139" y="95" fill="rgb(0,128,0)" fill-opacity="1.0" font-size="10" stroke="none">
DATE
</text>
<text x="16" y="108" fill="rgb(255,0,0)" fill-opacity="1.0" font-size="10" stroke="none">
*
</text>
<text x="26" y="108" fill="rgb(0,0,0)" fill-opacity="1.0" font-size="10" stroke="none">
IS_ACTIVE
</text>
<text x="139" y="108" fill="rgb(0,128,0)" fill-opacity="1.0" font-size="10" stroke="none">
VARCHAR2 (1 BYTE)
</text>
<text x="16" y="121" fill="rgb(255,0,0)" fill-opacity="1.0" font-size="10" stroke="none">
*
</text>
<text x="26" y="121" fill="rgb(0,0,0)" fill-opacity="1.0" font-size="10" stroke="none">
CREATED_ON
</text>
<text x="139" y="121" fill="rgb(0,128,0)" fill-opacity="1.0" font-size="10" stroke="none">
DATE
</text>
<text x="16" y="134" fill="rgb(255,0,0)" fill-opacity="1.0" font-size="10" stroke="none">
*
</text>
<text x="26" y="134" fill="rgb(0,0,0)" fill-opacity="1.0" font-size="10" stroke="none">
CREATED_BY
</text>
<text x="139" y="134" fill="rgb(0,128,0)" fill-opacity="1.0" font-size="10" stroke="none">
VARCHAR2 (30 BYTE)
</text>
<text x="16" y="147" fill="rgb(255,0,0)" fill-opacity="1.0" font-size="10" stroke="none">

</text>
<text x="26" y="147" fill="rgb(0,0,0)" fill-opacity="1.0" font-size="10" stroke="none">
MODIFIED_ON
</text>
<text x="139" y="147" fill="rgb(0,128,0)" fill-opacity="1.0" font-size="10" stroke="none">
DATE
</text>
<text x="16" y="160" fill="rgb(255,0,0)" fill-opacity="1.0" font-size="10" stroke="none">

</text>
<text x="26" y="160" fill="rgb(0,0,0)" fill-opacity="1.0" font-size="10" stroke="none">
MODIFIED_BY
</text>
<text x="139" y="160" fill="rgb(0,128,0)" fill-opacity="1.0" font-size="10" stroke="none">
VARCHAR2 (30 BYTE)
</text>
</g>
<g  fill="rgb(255,255,180)" stroke="rgb(0,0,255)" fill-opacity="1.0" stroke-opacity="1.0" clip-path="url(#clipPath5_0_)" transform="translate(1024,345)" >
<rect x="0" y="0" width="302" height="231" />
<text id="DEMO.DIM_STATE" x="106" y="13" fill="rgb(0,0,255)" font-weight="bold"  fill-opacity="1.0" font-size="10" stroke="none">
DEMO.DIM_STATE
</text>
<line x1="0" y1="17" x2="301" y2="17" fill="none" stroke="rgb(0,0,255)"/>
<text x="16" y="30" fill="rgb(255,0,0)" fill-opacity="1.0" font-size="10" stroke="none">
*
</text>
<text x="2" y="30" fill="rgb(0,0,255)" fill-opacity="1.0" font-size="10" stroke="none">
P
</text>
<text x="26" y="30" fill="rgb(0,0,0)" fill-opacity="1.0" font-size="10" stroke="none">
STATE_SK
</text>
<text x="121" y="30" fill="rgb(0,128,0)" fill-opacity="1.0" font-size="10" stroke="none">
NUMBER
</text>
<text x="16" y="43" fill="rgb(255,0,0)" fill-opacity="1.0" font-size="10" stroke="none">
*
</text>
<text x="26" y="43" fill="rgb(0,0,0)" fill-opacity="1.0" font-size="10" stroke="none">
REGION_CODE
</text>
<text x="121" y="43" fill="rgb(0,128,0)" fill-opacity="1.0" font-size="10" stroke="none">
VARCHAR2 (1 BYTE)
</text>
<text x="16" y="56" fill="rgb(255,0,0)" fill-opacity="1.0" font-size="10" stroke="none">
*
</text>
<text x="26" y="56" fill="rgb(0,0,0)" fill-opacity="1.0" font-size="10" stroke="none">
DIVISION_CODE
</text>
<text x="121" y="56" fill="rgb(0,128,0)" fill-opacity="1.0" font-size="10" stroke="none">
VARCHAR2 (1 BYTE)
</text>
<text x="16" y="69" fill="rgb(255,0,0)" fill-opacity="1.0" font-size="10" stroke="none">
*
</text>
<text x="2" y="69" fill="rgb(0,0,255)" fill-opacity="1.0" font-size="10" stroke="none">
U
</text>
<text x="26" y="69" fill="rgb(0,0,0)" fill-opacity="1.0" font-size="10" stroke="none">
STATE_CODE
</text>
<text x="121" y="69" fill="rgb(0,128,0)" fill-opacity="1.0" font-size="10" stroke="none">
VARCHAR2 (2 BYTE)
</text>
<text x="16" y="82" fill="rgb(255,0,0)" fill-opacity="1.0" font-size="10" stroke="none">
*
</text>
<text x="26" y="82" fill="rgb(0,0,0)" fill-opacity="1.0" font-size="10" stroke="none">
STATE_NAME
</text>
<text x="121" y="82" fill="rgb(0,128,0)" fill-opacity="1.0" font-size="10" stroke="none">
VARCHAR2 (200 BYTE)
</text>
<text x="16" y="95" fill="rgb(255,0,0)" fill-opacity="1.0" font-size="10" stroke="none">
*
</text>
<text x="2" y="95" fill="rgb(0,0,255)" fill-opacity="1.0" font-size="10" stroke="none">
U
</text>
<text x="26" y="95" fill="rgb(0,0,0)" fill-opacity="1.0" font-size="10" stroke="none">
START_DATE
</text>
<text x="121" y="95" fill="rgb(0,128,0)" fill-opacity="1.0" font-size="10" stroke="none">
DATE
</text>
<text x="16" y="108" fill="rgb(255,0,0)" fill-opacity="1.0" font-size="10" stroke="none">
*
</text>
<text x="26" y="108" fill="rgb(0,0,0)" fill-opacity="1.0" font-size="10" stroke="none">
END_DATE
</text>
<text x="121" y="108" fill="rgb(0,128,0)" fill-opacity="1.0" font-size="10" stroke="none">
DATE
</text>
<text x="16" y="121" fill="rgb(255,0,0)" fill-opacity="1.0" font-size="10" stroke="none">
*
</text>
<text x="2" y="121" fill="rgb(0,0,255)" fill-opacity="1.0" font-size="10" stroke="none">
U
</text>
<text x="26" y="121" fill="rgb(0,0,0)" fill-opacity="1.0" font-size="10" stroke="none">
IS_ACTIVE
</text>
<text x="121" y="121" fill="rgb(0,128,0)" fill-opacity="1.0" font-size="10" stroke="none">
VARCHAR2 (1 BYTE)
</text>
<text x="16" y="134" fill="rgb(255,0,0)" fill-opacity="1.0" font-size="10" stroke="none">
*
</text>
<text x="26" y="134" fill="rgb(0,0,0)" fill-opacity="1.0" font-size="10" stroke="none">
CREATED_ON
</text>
<text x="121" y="134" fill="rgb(0,128,0)" fill-opacity="1.0" font-size="10" stroke="none">
DATE
</text>
<text x="16" y="147" fill="rgb(255,0,0)" fill-opacity="1.0" font-size="10" stroke="none">
*
</text>
<text x="26" y="147" fill="rgb(0,0,0)" fill-opacity="1.0" font-size="10" stroke="none">
CREATED_BY
</text>
<text x="121" y="147" fill="rgb(0,128,0)" fill-opacity="1.0" font-size="10" stroke="none">
VARCHAR2 (30 BYTE)
</text>
<text x="16" y="160" fill="rgb(255,0,0)" fill-opacity="1.0" font-size="10" stroke="none">

</text>
<text x="26" y="160" fill="rgb(0,0,0)" fill-opacity="1.0" font-size="10" stroke="none">
MODIFIED_ON
</text>
<text x="121" y="160" fill="rgb(0,128,0)" fill-opacity="1.0" font-size="10" stroke="none">
DATE
</text>
<text x="16" y="173" fill="rgb(255,0,0)" fill-opacity="1.0" font-size="10" stroke="none">

</text>
<text x="26" y="173" fill="rgb(0,0,0)" fill-opacity="1.0" font-size="10" stroke="none">
MODIFIED_BY
</text>
<text x="121" y="173" fill="rgb(0,128,0)" fill-opacity="1.0" font-size="10" stroke="none">
VARCHAR2 (30 BYTE)
</text>
<line x1="0" y1="179" x2="301" y2="179" fill="none" stroke="rgb(0,0,255)"/>
<use xlink:href="#pk_sym" x="4" y="186" width="8" height="8" fill-opacity="1.0"/>
<text x="16" y="192" fill="rgb(0,0,0)" fill-opacity="1.0" font-size="10" stroke="none">
DIM_STATE_PK (STATE_SK)
</text>
<use xlink:href="#uk_sym" x="4" y="199" width="8" height="8" fill-opacity="1.0"/>
<text x="16" y="205" fill="rgb(0,0,0)" fill-opacity="1.0" font-size="10" stroke="none">
DIM_STATE_UK1 (STATE_CODE, START_DATE, IS_ACTIVE)
</text>
<line x1="0" y1="211" x2="301" y2="211" fill="none" stroke="rgb(0,0,255)"/>
<text x="2" y="224" fill="rgb(0,0,0)" fill-opacity="1.0" font-size="10" stroke="none">
U
</text>
<text x="16" y="224" fill="rgb(0,0,0)" fill-opacity="1.0" font-size="10" stroke="none">
DIM_STATE_UK1 (STATE_CODE, START_DATE, IS_ACTIVE)
</text>
</g>
<g  fill="rgb(255,255,180)" stroke="rgb(0,0,255)" fill-opacity="1.0" stroke-opacity="1.0" clip-path="url(#clipPath6_0_)" transform="translate(584,364)" >
<rect x="0" y="0" width="248" height="205" />
<text id="DEMO.FACT_POPULATION" x="59" y="13" fill="rgb(0,0,255)" font-weight="bold"  fill-opacity="1.0" font-size="10" stroke="none">
DEMO.FACT_POPULATION
</text>
<line x1="0" y1="17" x2="247" y2="17" fill="none" stroke="rgb(0,0,255)"/>
<text x="16" y="30" fill="rgb(255,0,0)" fill-opacity="1.0" font-size="10" stroke="none">
*
</text>
<text x="26" y="30" fill="rgb(0,0,0)" fill-opacity="1.0" font-size="10" stroke="none">
YEAR
</text>
<text x="136" y="30" fill="rgb(0,128,0)" fill-opacity="1.0" font-size="10" stroke="none">
VARCHAR2 (4 BYTE)
</text>
<text x="16" y="43" fill="rgb(255,0,0)" fill-opacity="1.0" font-size="10" stroke="none">
*
</text>
<text x="2" y="43" fill="rgb(0,0,0)" fill-opacity="1.0" font-size="10" stroke="none">
F
</text>
<text x="26" y="43" fill="rgb(0,0,0)" fill-opacity="1.0" font-size="10" stroke="none">
STATE_SK
</text>
<text x="136" y="43" fill="rgb(0,128,0)" fill-opacity="1.0" font-size="10" stroke="none">
NUMBER
</text>
<text x="16" y="56" fill="rgb(255,0,0)" fill-opacity="1.0" font-size="10" stroke="none">
*
</text>
<text x="2" y="56" fill="rgb(0,0,0)" fill-opacity="1.0" font-size="10" stroke="none">
F
</text>
<text x="26" y="56" fill="rgb(0,0,0)" fill-opacity="1.0" font-size="10" stroke="none">
COUNTY_SK
</text>
<text x="136" y="56" fill="rgb(0,128,0)" fill-opacity="1.0" font-size="10" stroke="none">
NUMBER
</text>
<text x="16" y="69" fill="rgb(255,0,0)" fill-opacity="1.0" font-size="10" stroke="none">
*
</text>
<text x="26" y="69" fill="rgb(0,0,0)" fill-opacity="1.0" font-size="10" stroke="none">
TOTAL_QTY
</text>
<text x="136" y="69" fill="rgb(0,128,0)" fill-opacity="1.0" font-size="10" stroke="none">
NUMBER
</text>
<text x="16" y="82" fill="rgb(255,0,0)" fill-opacity="1.0" font-size="10" stroke="none">
*
</text>
<text x="26" y="82" fill="rgb(0,0,0)" fill-opacity="1.0" font-size="10" stroke="none">
FORCE_QTY
</text>
<text x="136" y="82" fill="rgb(0,128,0)" fill-opacity="1.0" font-size="10" stroke="none">
NUMBER
</text>
<text x="16" y="95" fill="rgb(255,0,0)" fill-opacity="1.0" font-size="10" stroke="none">
*
</text>
<text x="26" y="95" fill="rgb(0,0,0)" fill-opacity="1.0" font-size="10" stroke="none">
EMPLOYED_QTY
</text>
<text x="136" y="95" fill="rgb(0,128,0)" fill-opacity="1.0" font-size="10" stroke="none">
NUMBER
</text>
<text x="16" y="108" fill="rgb(255,0,0)" fill-opacity="1.0" font-size="10" stroke="none">
*
</text>
<text x="26" y="108" fill="rgb(0,0,0)" fill-opacity="1.0" font-size="10" stroke="none">
UNEMPLOYED_QTY
</text>
<text x="136" y="108" fill="rgb(0,128,0)" fill-opacity="1.0" font-size="10" stroke="none">
NUMBER
</text>
<text x="16" y="121" fill="rgb(255,0,0)" fill-opacity="1.0" font-size="10" stroke="none">
*
</text>
<text x="26" y="121" fill="rgb(0,0,0)" fill-opacity="1.0" font-size="10" stroke="none">
CREATED_ON
</text>
<text x="136" y="121" fill="rgb(0,128,0)" fill-opacity="1.0" font-size="10" stroke="none">
DATE
</text>
<text x="16" y="134" fill="rgb(255,0,0)" fill-opacity="1.0" font-size="10" stroke="none">
*
</text>
<text x="26" y="134" fill="rgb(0,0,0)" fill-opacity="1.0" font-size="10" stroke="none">
CREATED_BY
</text>
<text x="136" y="134" fill="rgb(0,128,0)" fill-opacity="1.0" font-size="10" stroke="none">
VARCHAR2 (30 BYTE)
</text>
<line x1="0" y1="140" x2="247" y2="140" fill="none" stroke="rgb(0,0,255)"/>
<use xlink:href="#fk_sym" x="4" y="147" width="8" height="8" fill-opacity="1.0"/><a xlink:href="#DEMO.DIM_STATE" >
<text x="16" y="153" fill="rgb(0,0,0)" fill-opacity="1.0" font-size="10" stroke="none">
FACT_POPULATION_FK1 (STATE_SK)
</text></a>
<use xlink:href="#fk_sym" x="4" y="160" width="8" height="8" fill-opacity="1.0"/><a xlink:href="#DEMO.DIM_COUNTY" >
<text x="16" y="166" fill="rgb(0,0,0)" fill-opacity="1.0" font-size="10" stroke="none">
FACT_POPULATION_FK2 (COUNTY_SK)
</text></a>
<line x1="0" y1="172" x2="247" y2="172" fill="none" stroke="rgb(0,0,255)"/>
<text x="16" y="185" fill="rgb(0,0,0)" fill-opacity="1.0" font-size="10" stroke="none">
FACT_POPULATION_IDX1 (STATE_SK)
</text>
<text x="16" y="198" fill="rgb(0,0,0)" fill-opacity="1.0" font-size="10" stroke="none">
FACT_POPULATION_IDX2 (COUNTY_SK)
</text>
</g>
<g  fill="rgb(255,255,180)" stroke="rgb(0,0,255)" fill-opacity="1.0" stroke-opacity="1.0" clip-path="url(#clipPath7_0_)" transform="translate(96,317)" >
<rect x="0" y="0" width="280" height="180" />
<text id="DEMO.METROPOLITAN_EXT" x="70" y="13" fill="rgb(0,0,255)" font-weight="bold"  fill-opacity="1.0" font-size="10" stroke="none">
DEMO.METROPOLITAN_EXT
</text>
<line x1="0" y1="17" x2="279" y2="17" fill="none" stroke="rgb(0,0,255)"/>
<text x="16" y="30" fill="rgb(255,0,0)" fill-opacity="1.0" font-size="10" stroke="none">

</text>
<text x="26" y="30" fill="rgb(0,0,0)" fill-opacity="1.0" font-size="10" stroke="none">
CBSA_CODE
</text>
<text x="162" y="30" fill="rgb(0,128,0)" fill-opacity="1.0" font-size="10" stroke="none">
VARCHAR2 (200 BYTE)
</text>
<text x="16" y="43" fill="rgb(255,0,0)" fill-opacity="1.0" font-size="10" stroke="none">

</text>
<text x="26" y="43" fill="rgb(0,0,0)" fill-opacity="1.0" font-size="10" stroke="none">
METRPLTN_DIVSN_CODE
</text>
<text x="162" y="43" fill="rgb(0,128,0)" fill-opacity="1.0" font-size="10" stroke="none">
VARCHAR2 (200 BYTE)
</text>
<text x="16" y="56" fill="rgb(255,0,0)" fill-opacity="1.0" font-size="10" stroke="none">

</text>
<text x="26" y="56" fill="rgb(0,0,0)" fill-opacity="1.0" font-size="10" stroke="none">
CSA_CODE
</text>
<text x="162" y="56" fill="rgb(0,128,0)" fill-opacity="1.0" font-size="10" stroke="none">
VARCHAR2 (200 BYTE)
</text>
<text x="16" y="69" fill="rgb(255,0,0)" fill-opacity="1.0" font-size="10" stroke="none">

</text>
<text x="26" y="69" fill="rgb(0,0,0)" fill-opacity="1.0" font-size="10" stroke="none">
CBSA_TITLE
</text>
<text x="162" y="69" fill="rgb(0,128,0)" fill-opacity="1.0" font-size="10" stroke="none">
VARCHAR2 (200 BYTE)
</text>
<text x="16" y="82" fill="rgb(255,0,0)" fill-opacity="1.0" font-size="10" stroke="none">

</text>
<text x="26" y="82" fill="rgb(0,0,0)" fill-opacity="1.0" font-size="10" stroke="none">
METRPLRN_STAT_AREA
</text>
<text x="162" y="82" fill="rgb(0,128,0)" fill-opacity="1.0" font-size="10" stroke="none">
VARCHAR2 (200 BYTE)
</text>
<text x="16" y="95" fill="rgb(255,0,0)" fill-opacity="1.0" font-size="10" stroke="none">

</text>
<text x="26" y="95" fill="rgb(0,0,0)" fill-opacity="1.0" font-size="10" stroke="none">
METRPLTN_DVSN_TITLE
</text>
<text x="162" y="95" fill="rgb(0,128,0)" fill-opacity="1.0" font-size="10" stroke="none">
VARCHAR2 (200 BYTE)
</text>
<text x="16" y="108" fill="rgb(255,0,0)" fill-opacity="1.0" font-size="10" stroke="none">

</text>
<text x="26" y="108" fill="rgb(0,0,0)" fill-opacity="1.0" font-size="10" stroke="none">
CSA_TITLE
</text>
<text x="162" y="108" fill="rgb(0,128,0)" fill-opacity="1.0" font-size="10" stroke="none">
VARCHAR2 (200 BYTE)
</text>
<text x="16" y="121" fill="rgb(255,0,0)" fill-opacity="1.0" font-size="10" stroke="none">

</text>
<text x="26" y="121" fill="rgb(0,0,0)" fill-opacity="1.0" font-size="10" stroke="none">
COUNTY_EQUIVALENT
</text>
<text x="162" y="121" fill="rgb(0,128,0)" fill-opacity="1.0" font-size="10" stroke="none">
VARCHAR2 (200 BYTE)
</text>
<text x="16" y="134" fill="rgb(255,0,0)" fill-opacity="1.0" font-size="10" stroke="none">

</text>
<text x="26" y="134" fill="rgb(0,0,0)" fill-opacity="1.0" font-size="10" stroke="none">
STATE_NAME
</text>
<text x="162" y="134" fill="rgb(0,128,0)" fill-opacity="1.0" font-size="10" stroke="none">
VARCHAR2 (200 BYTE)
</text>
<text x="16" y="147" fill="rgb(255,0,0)" fill-opacity="1.0" font-size="10" stroke="none">

</text>
<text x="26" y="147" fill="rgb(0,0,0)" fill-opacity="1.0" font-size="10" stroke="none">
FIPS_STATE_CODE
</text>
<text x="162" y="147" fill="rgb(0,128,0)" fill-opacity="1.0" font-size="10" stroke="none">
VARCHAR2 (200 BYTE)
</text>
<text x="16" y="160" fill="rgb(255,0,0)" fill-opacity="1.0" font-size="10" stroke="none">

</text>
<text x="26" y="160" fill="rgb(0,0,0)" fill-opacity="1.0" font-size="10" stroke="none">
FIPS_COUNTY_CODE
</text>
<text x="162" y="160" fill="rgb(0,128,0)" fill-opacity="1.0" font-size="10" stroke="none">
VARCHAR2 (200 BYTE)
</text>
<text x="16" y="173" fill="rgb(255,0,0)" fill-opacity="1.0" font-size="10" stroke="none">

</text>
<text x="26" y="173" fill="rgb(0,0,0)" fill-opacity="1.0" font-size="10" stroke="none">
CENTRAL_COUNTY
</text>
<text x="162" y="173" fill="rgb(0,128,0)" fill-opacity="1.0" font-size="10" stroke="none">
VARCHAR2 (200 BYTE)
</text>
</g>
<g  fill="rgb(255,255,180)" stroke="rgb(0,0,255)" fill-opacity="1.0" stroke-opacity="1.0" clip-path="url(#clipPath8_0_)" transform="translate(96,523)" >
<rect x="0" y="0" width="261" height="193" />
<text id="DEMO.POPULATION_EXT" x="69" y="13" fill="rgb(0,0,255)" font-weight="bold"  fill-opacity="1.0" font-size="10" stroke="none">
DEMO.POPULATION_EXT
</text>
<line x1="0" y1="17" x2="260" y2="17" fill="none" stroke="rgb(0,0,255)"/>
<text x="16" y="30" fill="rgb(255,0,0)" fill-opacity="1.0" font-size="10" stroke="none">

</text>
<text x="26" y="30" fill="rgb(0,0,0)" fill-opacity="1.0" font-size="10" stroke="none">
GEO_ID
</text>
<text x="143" y="30" fill="rgb(0,128,0)" fill-opacity="1.0" font-size="10" stroke="none">
VARCHAR2 (200 BYTE)
</text>
<text x="16" y="43" fill="rgb(255,0,0)" fill-opacity="1.0" font-size="10" stroke="none">

</text>
<text x="26" y="43" fill="rgb(0,0,0)" fill-opacity="1.0" font-size="10" stroke="none">
GEO_ID2
</text>
<text x="143" y="43" fill="rgb(0,128,0)" fill-opacity="1.0" font-size="10" stroke="none">
VARCHAR2 (200 BYTE)
</text>
<text x="16" y="56" fill="rgb(255,0,0)" fill-opacity="1.0" font-size="10" stroke="none">

</text>
<text x="26" y="56" fill="rgb(0,0,0)" fill-opacity="1.0" font-size="10" stroke="none">
GEO_DISPLAY_LABEL
</text>
<text x="143" y="56" fill="rgb(0,128,0)" fill-opacity="1.0" font-size="10" stroke="none">
VARCHAR2 (200 BYTE)
</text>
<text x="16" y="69" fill="rgb(255,0,0)" fill-opacity="1.0" font-size="10" stroke="none">

</text>
<text x="26" y="69" fill="rgb(0,0,0)" fill-opacity="1.0" font-size="10" stroke="none">
RESCEN42010
</text>
<text x="143" y="69" fill="rgb(0,128,0)" fill-opacity="1.0" font-size="10" stroke="none">
VARCHAR2 (200 BYTE)
</text>
<text x="16" y="82" fill="rgb(255,0,0)" fill-opacity="1.0" font-size="10" stroke="none">

</text>
<text x="26" y="82" fill="rgb(0,0,0)" fill-opacity="1.0" font-size="10" stroke="none">
RESBASE42010
</text>
<text x="143" y="82" fill="rgb(0,128,0)" fill-opacity="1.0" font-size="10" stroke="none">
VARCHAR2 (200 BYTE)
</text>
<text x="16" y="95" fill="rgb(255,0,0)" fill-opacity="1.0" font-size="10" stroke="none">

</text>
<text x="26" y="95" fill="rgb(0,0,0)" fill-opacity="1.0" font-size="10" stroke="none">
RESPOP72010
</text>
<text x="143" y="95" fill="rgb(0,128,0)" fill-opacity="1.0" font-size="10" stroke="none">
VARCHAR2 (200 BYTE)
</text>
<text x="16" y="108" fill="rgb(255,0,0)" fill-opacity="1.0" font-size="10" stroke="none">

</text>
<text x="26" y="108" fill="rgb(0,0,0)" fill-opacity="1.0" font-size="10" stroke="none">
RESPOP72011
</text>
<text x="143" y="108" fill="rgb(0,128,0)" fill-opacity="1.0" font-size="10" stroke="none">
VARCHAR2 (200 BYTE)
</text>
<text x="16" y="121" fill="rgb(255,0,0)" fill-opacity="1.0" font-size="10" stroke="none">

</text>
<text x="26" y="121" fill="rgb(0,0,0)" fill-opacity="1.0" font-size="10" stroke="none">
RESPOP72012
</text>
<text x="143" y="121" fill="rgb(0,128,0)" fill-opacity="1.0" font-size="10" stroke="none">
VARCHAR2 (200 BYTE)
</text>
<text x="16" y="134" fill="rgb(255,0,0)" fill-opacity="1.0" font-size="10" stroke="none">

</text>
<text x="26" y="134" fill="rgb(0,0,0)" fill-opacity="1.0" font-size="10" stroke="none">
RESPOP72013
</text>
<text x="143" y="134" fill="rgb(0,128,0)" fill-opacity="1.0" font-size="10" stroke="none">
VARCHAR2 (200 BYTE)
</text>
<text x="16" y="147" fill="rgb(255,0,0)" fill-opacity="1.0" font-size="10" stroke="none">

</text>
<text x="26" y="147" fill="rgb(0,0,0)" fill-opacity="1.0" font-size="10" stroke="none">
RESPOP72014
</text>
<text x="143" y="147" fill="rgb(0,128,0)" fill-opacity="1.0" font-size="10" stroke="none">
VARCHAR2 (200 BYTE)
</text>
<text x="16" y="160" fill="rgb(255,0,0)" fill-opacity="1.0" font-size="10" stroke="none">

</text>
<text x="26" y="160" fill="rgb(0,0,0)" fill-opacity="1.0" font-size="10" stroke="none">
RESPOP72015
</text>
<text x="143" y="160" fill="rgb(0,128,0)" fill-opacity="1.0" font-size="10" stroke="none">
VARCHAR2 (200 BYTE)
</text>
<text x="16" y="173" fill="rgb(255,0,0)" fill-opacity="1.0" font-size="10" stroke="none">

</text>
<text x="26" y="173" fill="rgb(0,0,0)" fill-opacity="1.0" font-size="10" stroke="none">
RESPOP72016
</text>
<text x="143" y="173" fill="rgb(0,128,0)" fill-opacity="1.0" font-size="10" stroke="none">
VARCHAR2 (200 BYTE)
</text>
<text x="16" y="186" fill="rgb(255,0,0)" fill-opacity="1.0" font-size="10" stroke="none">

</text>
<text x="26" y="186" fill="rgb(0,0,0)" fill-opacity="1.0" font-size="10" stroke="none">
RESPOP72017
</text>
<text x="143" y="186" fill="rgb(0,128,0)" fill-opacity="1.0" font-size="10" stroke="none">
VARCHAR2 (200 BYTE)
</text>
</g>
<g  fill="rgb(255,255,180)" stroke="rgb(0,0,255)" fill-opacity="1.0" stroke-opacity="1.0" clip-path="url(#clipPath9_0_)" transform="translate(101,65)" >
<rect x="0" y="0" width="207" height="76" />
<text id="DEMO.STATE_EXT" x="58" y="13" fill="rgb(0,0,255)" font-weight="bold"  fill-opacity="1.0" font-size="10" stroke="none">
DEMO.STATE_EXT
</text>
<line x1="0" y1="17" x2="206" y2="17" fill="none" stroke="rgb(0,0,255)"/>
<text x="16" y="30" fill="rgb(255,0,0)" fill-opacity="1.0" font-size="10" stroke="none">

</text>
<text x="26" y="30" fill="rgb(0,0,0)" fill-opacity="1.0" font-size="10" stroke="none">
REGION
</text>
<text x="89" y="30" fill="rgb(0,128,0)" fill-opacity="1.0" font-size="10" stroke="none">
VARCHAR2 (200 BYTE)
</text>
<text x="16" y="43" fill="rgb(255,0,0)" fill-opacity="1.0" font-size="10" stroke="none">

</text>
<text x="26" y="43" fill="rgb(0,0,0)" fill-opacity="1.0" font-size="10" stroke="none">
DIVISION
</text>
<text x="89" y="43" fill="rgb(0,128,0)" fill-opacity="1.0" font-size="10" stroke="none">
VARCHAR2 (200 BYTE)
</text>
<text x="16" y="56" fill="rgb(255,0,0)" fill-opacity="1.0" font-size="10" stroke="none">

</text>
<text x="26" y="56" fill="rgb(0,0,0)" fill-opacity="1.0" font-size="10" stroke="none">
STATE
</text>
<text x="89" y="56" fill="rgb(0,128,0)" fill-opacity="1.0" font-size="10" stroke="none">
VARCHAR2 (200 BYTE)
</text>
<text x="16" y="69" fill="rgb(255,0,0)" fill-opacity="1.0" font-size="10" stroke="none">

</text>
<text x="26" y="69" fill="rgb(0,0,0)" fill-opacity="1.0" font-size="10" stroke="none">
NAME
</text>
<text x="89" y="69" fill="rgb(0,128,0)" fill-opacity="1.0" font-size="10" stroke="none">
VARCHAR2 (200 BYTE)
</text>
</g>
<g  fill="rgb(255,255,180)" stroke="rgb(0,0,255)" fill-opacity="1.0" stroke-opacity="1.0" clip-path="url(#clipPath10_0_)" transform="translate(98,735)" >
<rect x="0" y="0" width="237" height="102" />
<text id="DEMO.UNEMPLOYMENT_EXT" x="46" y="13" fill="rgb(0,0,255)" font-weight="bold"  fill-opacity="1.0" font-size="10" stroke="none">
DEMO.UNEMPLOYMENT_EXT
</text>
<line x1="0" y1="17" x2="236" y2="17" fill="none" stroke="rgb(0,0,255)"/>
<text x="16" y="30" fill="rgb(255,0,0)" fill-opacity="1.0" font-size="10" stroke="none">

</text>
<text x="26" y="30" fill="rgb(0,0,0)" fill-opacity="1.0" font-size="10" stroke="none">
STATE_CODE
</text>
<text x="119" y="30" fill="rgb(0,128,0)" fill-opacity="1.0" font-size="10" stroke="none">
VARCHAR2 (200 BYTE)
</text>
<text x="16" y="43" fill="rgb(255,0,0)" fill-opacity="1.0" font-size="10" stroke="none">

</text>
<text x="26" y="43" fill="rgb(0,0,0)" fill-opacity="1.0" font-size="10" stroke="none">
COUNTY_CODE
</text>
<text x="119" y="43" fill="rgb(0,128,0)" fill-opacity="1.0" font-size="10" stroke="none">
VARCHAR2 (200 BYTE)
</text>
<text x="16" y="56" fill="rgb(255,0,0)" fill-opacity="1.0" font-size="10" stroke="none">

</text>
<text x="26" y="56" fill="rgb(0,0,0)" fill-opacity="1.0" font-size="10" stroke="none">
YEAR_CODE
</text>
<text x="119" y="56" fill="rgb(0,128,0)" fill-opacity="1.0" font-size="10" stroke="none">
VARCHAR2 (200 BYTE)
</text>
<text x="16" y="69" fill="rgb(255,0,0)" fill-opacity="1.0" font-size="10" stroke="none">

</text>
<text x="26" y="69" fill="rgb(0,0,0)" fill-opacity="1.0" font-size="10" stroke="none">
FORCE
</text>
<text x="119" y="69" fill="rgb(0,128,0)" fill-opacity="1.0" font-size="10" stroke="none">
VARCHAR2 (200 BYTE)
</text>
<text x="16" y="82" fill="rgb(255,0,0)" fill-opacity="1.0" font-size="10" stroke="none">

</text>
<text x="26" y="82" fill="rgb(0,0,0)" fill-opacity="1.0" font-size="10" stroke="none">
EMPLOYED
</text>
<text x="119" y="82" fill="rgb(0,128,0)" fill-opacity="1.0" font-size="10" stroke="none">
VARCHAR2 (200 BYTE)
</text>
<text x="16" y="95" fill="rgb(255,0,0)" fill-opacity="1.0" font-size="10" stroke="none">

</text>
<text x="26" y="95" fill="rgb(0,0,0)" fill-opacity="1.0" font-size="10" stroke="none">
UNEMPLOYED
</text>
<text x="119" y="95" fill="rgb(0,128,0)" fill-opacity="1.0" font-size="10" stroke="none">
VARCHAR2 (200 BYTE)
</text>
</g>
<g  fill="rgb(150,255,150)" stroke="rgb(0,0,255)" fill-opacity="1.0" stroke-opacity="1.0" clip-path="url(#clipPath11_0_)" transform="translate(587,733)" >
<rect x="0" y="0" width="244" height="104" rx="20" ry="20" />
<text id="DEMO.TOTAL_POPLN_BY_MTRPLTN_VIEW" x="20" y="13" fill="rgb(0,0,255)" font-weight="bold"  fill-opacity="1.0" font-size="10" stroke="none">
DEMO.TOTAL_POPLN_BY_MTRPLTN_VIEW
</text>
<line x1="0" y1="17" x2="243" y2="17" fill="none" stroke="rgb(0,0,255)"/>
<text x="16" y="30" fill="rgb(255,0,0)" fill-opacity="1.0" font-size="10" stroke="none">

</text>
<text x="26" y="30" fill="rgb(0,0,0)" fill-opacity="1.0" font-size="10" stroke="none">
YEAR
</text>
<text x="129" y="30" fill="rgb(0,128,0)" fill-opacity="1.0" font-size="10" stroke="none">
NUMBER
</text>
<text x="16" y="43" fill="rgb(255,0,0)" fill-opacity="1.0" font-size="10" stroke="none">

</text>
<text x="26" y="43" fill="rgb(0,0,0)" fill-opacity="1.0" font-size="10" stroke="none">
METRPLRN_NAME
</text>
<text x="129" y="43" fill="rgb(0,128,0)" fill-opacity="1.0" font-size="10" stroke="none">
NUMBER
</text>
<text x="16" y="56" fill="rgb(255,0,0)" fill-opacity="1.0" font-size="10" stroke="none">

</text>
<text x="26" y="56" fill="rgb(0,0,0)" fill-opacity="1.0" font-size="10" stroke="none">
TOTAL_QTY
</text>
<text x="129" y="56" fill="rgb(0,128,0)" fill-opacity="1.0" font-size="10" stroke="none">
NUMBER
</text>
<line x1="0" y1="62" x2="243" y2="62" fill="none" stroke="rgb(0,0,255)"/>
<text x="10" y="75" fill="rgb(0,0,0)" fill-opacity="1.0" font-size="10" stroke="none">
DEMO.FACT_POPULATION
</text>
<text x="10" y="88" fill="rgb(0,0,0)" fill-opacity="1.0" font-size="10" stroke="none">
DEMO.DIM_COUNTY
</text>
<text x="10" y="101" fill="rgb(0,0,0)" fill-opacity="1.0" font-size="10" stroke="none">
DEMO.DIM_METROPOLITAN
</text>
</g>
<g  fill="rgb(150,255,150)" stroke="rgb(0,0,255)" fill-opacity="1.0" stroke-opacity="1.0" clip-path="url(#clipPath12_0_)" transform="translate(1065,735)" >
<rect x="0" y="0" width="264" height="104" rx="20" ry="20" />
<text id="DEMO.TOTAL_UNEMPL_BY_COUNTY_VIEW" x="26" y="13" fill="rgb(0,0,255)" font-weight="bold"  fill-opacity="1.0" font-size="10" stroke="none">
DEMO.TOTAL_UNEMPL_BY_COUNTY_VIEW
</text>
<line x1="0" y1="17" x2="263" y2="17" fill="none" stroke="rgb(0,0,255)"/>
<text x="16" y="30" fill="rgb(255,0,0)" fill-opacity="1.0" font-size="10" stroke="none">

</text>
<text x="26" y="30" fill="rgb(0,0,0)" fill-opacity="1.0" font-size="10" stroke="none">
YEAR
</text>
<text x="146" y="30" fill="rgb(0,128,0)" fill-opacity="1.0" font-size="10" stroke="none">
VARCHAR2 (4 BYTE)
</text>
<text x="16" y="43" fill="rgb(255,0,0)" fill-opacity="1.0" font-size="10" stroke="none">

</text>
<text x="26" y="43" fill="rgb(0,0,0)" fill-opacity="1.0" font-size="10" stroke="none">
COUNTY_NAME
</text>
<text x="146" y="43" fill="rgb(0,128,0)" fill-opacity="1.0" font-size="10" stroke="none">
VARCHAR2 (200 BYTE)
</text>
<text x="16" y="56" fill="rgb(255,0,0)" fill-opacity="1.0" font-size="10" stroke="none">

</text>
<text x="26" y="56" fill="rgb(0,0,0)" fill-opacity="1.0" font-size="10" stroke="none">
TOTAL_QTY
</text>
<text x="146" y="56" fill="rgb(0,128,0)" fill-opacity="1.0" font-size="10" stroke="none">
NUMBER
</text>
<text x="16" y="69" fill="rgb(255,0,0)" fill-opacity="1.0" font-size="10" stroke="none">

</text>
<text x="26" y="69" fill="rgb(0,0,0)" fill-opacity="1.0" font-size="10" stroke="none">
UNEMPLOYED_RATIO
</text>
<text x="146" y="69" fill="rgb(0,128,0)" fill-opacity="1.0" font-size="10" stroke="none">
NUMBER
</text>
<line x1="0" y1="75" x2="263" y2="75" fill="none" stroke="rgb(0,0,255)"/>
<text x="10" y="88" fill="rgb(0,0,0)" fill-opacity="1.0" font-size="10" stroke="none">
DEMO.FACT_POPULATION
</text>
<text x="10" y="101" fill="rgb(0,0,0)" fill-opacity="1.0" font-size="10" stroke="none">
DEMO.DIM_COUNTY
</text>
</g>

</svg>